<svg xmlns="http://www.w3.org/2000/svg" viewBox="0 0 120 120">
  <defs>
    <linearGradient id="sunGradient" x1="0%" y1="0%" x2="0%" y2="100%">
      <stop offset="0%" stopColor="#FFDE00"/>
      <stop offset="100%" stopColor="#FFB300"/>
    </linearGradient>
    <clipPath id="circleClip">
      <circle cx="60" cy="60" r="60" />
    </clipPath>
  </defs>

  <g clip-path="url(#circleClip)">
    <circle cx="60" cy="60" r="60" fill="#FFFFFF" />

    <g transform="translate(10, 20)">
      <!-- Sun Background -->
      <path d="M 20 80 C 20 30 100 30 100 80 Z" fill="url(#sunGradient)" />
      <path d="M 23 55 Q 60 50 97 55 L 98 60 Q 60 55 22 60 Z" fill="#FFA000" opacity="0.6"/>
      <path d="M 20 70 Q 60 65 100 70 L 100 75 Q 60 70 20 75 Z" fill="#FFA000" opacity="0.6"/>

      <!-- Airplane -->
      <g transform="translate(55, 15) rotate(-15) scale(0.6)">
        <path d="M 0 10 L 25 10 L 40 -10 L 45 -10 L 35 10 L 55 10 C 60 10 65 13 65 15 C 65 17 60 20 55 20 L 35 20 L 45 40 L 40 40 L 25 20 L 0 20 L -5 25 L -10 25 L -5 15 L -10 5 L -5 5 Z" fill="#0A2B5E" />
      </g>

      <!-- Trees -->
      <g fill="#0A2B5E">
        <path d="M 22 84 Q 15 60 22 40 Q 24 60 26 84 Z" />
        <path d="M 22 40 Q 10 40 5 45 Q 15 38 22 40 Z" />
        <path d="M 22 40 Q 15 30 10 25 Q 18 32 22 40 Z" />
        <path d="M 22 40 Q 25 28 30 25 Q 26 32 22 40 Z" />
        <path d="M 22 40 Q 35 35 40 40 Q 30 38 22 40 Z" />
        <path d="M 22 40 Q 30 45 35 50 Q 25 45 22 40 Z" />

        <path d="M 30 84 Q 26 65 30 55 Q 32 65 33 84 Z" />
        <path d="M 30 55 Q 20 55 18 60 Q 25 53 30 55 Z" />
        <path d="M 30 55 Q 25 45 22 40 Q 28 48 30 55 Z" />
        <path d="M 30 55 Q 35 45 40 42 Q 33 50 30 55 Z" />
        <path d="M 30 55 Q 42 55 45 60 Q 35 58 30 55 Z" />
        <path d="M 30 55 Q 35 65 40 70 Q 32 60 30 55 Z" />
      </g>

      <!-- Mountains Base -->
      <path d="M 15 85 L 35 55 L 45 65 L 60 40 L 75 58 L 85 45 L 105 85 Z" fill="#0A2B5E" />
      
      <!-- Snowcaps -->
      <path d="M 35 55 L 41 68 L 38 70 L 35 63 L 30 70 L 27 65 Z" fill="#FFFFFF" />
      <path d="M 60 40 L 68 55 L 63 60 L 60 52 L 55 62 L 50 50 Z" fill="#FFFFFF" />
      <path d="M 85 45 L 92 60 L 88 62 L 85 55 L 80 62 L 78 55 Z" fill="#FFFFFF" />

      <!-- Underscore swooshes -->
      <path d="M 10 88 Q 60 82 110 88" stroke="#0A2B5E" strokeWidth="1.5" fill="none" />
      <path d="M 15 92 Q 60 87 105 92" stroke="#0A2B5E" strokeWidth="1" fill="none" />
    </g>
  </g>
</svg>
